PathFileType	4	(X/Y/Z)	Patient4_TMGait_0pt3_01_left_10.trc.trc
DataRate	CameraRate	NumFrames	NumMarkers	Units	OrigDataRate	OrigDataStartFrame	OrigNumFrames
53.846153846154	53.846153846154	5	33	mm	53.846153846154	1	       141
Frame#	Time	Sacral			L.Shoulder			Chest			R.Shoulder			Neck			R.ASIS			L.ASIS			R.Thigh.Superior			R.Thigh.Lateral			R.Thigh.Inferior			R.Patella			L.Thigh.Superior			L.Thigh.Lateral			L.Thigh.Inferior			L.Patella			L.Shank.Superior			L.Shank.Lateral			L.Shank.Inferior			R.Shank.Superior			R.Shank.Lateral			R.Shank.Inferior			R.Heel			R.Midfoot.Superior			R.Midfoot.Lateral			R.Toe			L.Heel			L.Midfoot.Lateral			L.Midfoot.Superior			L.Toe			L.Elbow			L.Wrist			R.Elbow			R.Wrist			
		X1	Y1	Z1	X2	Y2	Z2	X3	Y3	Z3	X4	Y4	Z4	X5	Y5	Z5	X6	Y6	Z6	X7	Y7	Z7	X8	Y8	Z8	X9	Y9	Z9	X10	Y10	Z10	X11	Y11	Z11	X12	Y12	Z12	X13	Y13	Z13	X14	Y14	Z14	X15	Y15	Z15	X16	Y16	Z16	X17	Y17	Z17	X18	Y18	Z18	X19	Y19	Z19	X20	Y20	Z20	X21	Y21	Z21	X22	Y22	Z22	X23	Y23	Z23	X24	Y24	Z24	X25	Y25	Z25	X26	Y26	Z26	X27	Y27	Z27	X28	Y28	Z28	X29	Y29	Z29	X30	Y30	Z30	X31	Y31	Z31	X32	Y32	Z32	X33	Y33	Z33	

1	18.410000000000	630.830487843271	988.077335873384	558.820345199732	790.554216035520	1428.328904038058	383.504180708015	899.145140240428	1362.056507723575	541.394294285896	816.440274846095	1430.121302827960	718.269390467789	777.732476882039	1486.434414299097	548.627589813305	865.980286847914	934.796727777110	672.518334750370	845.342185525746	958.234793731140	399.001438808928	914.657387338900	737.198673603871	633.370340590454	838.355597207149	618.727090722461	685.436170607761	918.948899781932	574.170743561384	604.469907110388	921.359986975224	478.864632002751	608.075374736978	925.282014418287	765.276155927738	420.634921858940	874.798638772730	642.714370927104	336.662983120539	974.819798645751	573.991965786818	397.685433832819	984.167137137180	485.748836227753	382.018831051659	918.872496100919	422.104930975719	367.628109787172	776.863488797333	375.328900678586	324.758001766221	779.612452770827	238.907489074697	362.050434458398	878.440676621969	391.455848513317	606.166419144227	791.778360816293	293.465109261570	658.454795855095	822.990845885752	199.064115886047	589.676743179540	672.999713061961	43.473309450556	544.893508661227	843.580798226511	96.759018653533	592.433657863679	751.962296341321	37.021444475596	624.316255071922	960.369204838593	42.727879055388	626.100807691226	600.362401696084	145.312356335419	407.983503533321	652.188087390890	125.975361915490	314.254729326160	757.762718787488	145.036019000137	326.638942659698	844.306940552242	53.849696257372	266.160339678333	769.664447086771	1092.279140381835	232.513279490092	977.105426327150	936.626269039446	183.153033652725	841.424874716949	1083.098139480383	846.757110757978	1028.139528119601	900.881227950637	846.586668752372	
2	18.428571428571	629.076012328262	985.552055751581	561.270552164427	787.420086547720	1425.530047345629	384.330238722449	897.557888624646	1359.365572900176	541.224907702842	817.062067599640	1427.732690353722	719.006658616219	776.342100484494	1484.102654869032	549.453877454718	865.541433680438	932.493331015295	673.030571584580	842.314725531720	956.205882422840	399.699721504126	914.879132848312	735.523238218856	633.234307567852	839.612819457789	616.505750539022	685.202526548801	920.211088563631	572.517724120762	603.795455353118	922.888697114737	476.484589815951	607.101174693822	923.940649099851	764.985006411517	420.590155355822	874.774772833008	641.948965903988	336.700052546445	975.799387919203	574.634547014700	397.401508268670	986.740777107392	487.109684479279	381.596491585061	923.485453374399	422.287341821808	366.852665481297	783.271884067745	370.996153677716	324.162918245794	790.965548116999	234.703578351816	360.656989301673	878.605488648427	389.272379705815	605.307179930762	790.613693517036	292.567009886011	657.657976287180	819.651239186668	197.820775771928	589.000831977975	667.337794487913	43.754951503930	544.755585236576	837.977507440923	96.580678143597	592.179245018011	746.336020094296	37.106406325003	624.255844370994	954.721697790302	42.247175729396	626.186531443060	615.660050008922	134.762848403514	406.669335890348	667.682209461150	117.717319613993	312.665763913877	772.340926286541	140.406753462470	324.810666823189	861.667769242762	52.868840812717	263.559214360999	758.821478410313	1086.086927644671	242.652068185926	951.226779594190	915.143285629419	196.350794695768	852.913279055711	1080.937401068813	843.864924823036	1047.741591805304	909.721107975776	837.032411402032	
3	18.447142857143	627.338474537692	983.084615012500	563.762199864468	784.192296657002	1422.783399360187	385.140869335188	895.967041815396	1356.726177673987	540.953835297902	817.769385394225	1425.394260882851	719.665631130401	774.964379152343	1481.816070719849	550.217320880125	865.114349488377	930.220186710787	673.464423230644	839.220877913713	954.231181320617	400.326575978181	914.997189007258	733.819393168060	632.983677849982	840.737188867396	614.292563136607	684.892695852097	921.257928236627	570.842801594091	602.986460665229	924.164192284951	474.108885375350	605.984883733282	922.518182228212	764.747262602300	420.560970590673	874.668237997433	641.240848990413	336.746689366617	976.666998138320	575.335551083011	397.147322906988	989.218323391544	488.554030711920	381.214106269884	928.080102779597	422.546968275991	366.095565794316	789.798886710757	366.627568364883	323.490099662527	802.536415460286	230.535710747355	359.224952061228	878.534689025221	387.096404644584	604.343847125950	789.275342526025	291.660682212903	656.824379617938	816.153912542826	196.574549978979	588.279683185374	661.553111805783	44.012840077778	544.632439179155	832.225204084815	96.382342648009	591.885781517763	740.577871229419	37.185405160496	624.192646331398	948.949532732416	41.783279803229	626.264872879265	631.313561601942	124.150558760035	405.201876277073	683.591254925658	109.429134633381	310.965322958911	787.259362272298	135.829854442530	322.949072762033	879.450600734588	52.038251157534	261.023168714292	747.921965802477	1080.068146453149	252.728220206784	924.319504753557	893.918370879859	209.719718620694	864.583174556779	1078.924093336036	840.745898710091	1067.446252632537	919.086060169386	826.987084001942	
4	18.465714285714	625.684181234127	980.810427722524	566.242181554702	780.913387177219	1420.224335227913	385.894227353097	894.417222613058	1354.270168159964	540.522861457329	818.595846167727	1423.231305142220	720.172185240541	773.644152456521	1479.692117361453	550.869926183939	864.723864143633	928.080091463627	673.752963645689	836.116263308446	952.422320379906	400.821487800923	914.938434846920	732.136631488155	632.564038977568	841.597472933741	612.177722531518	684.481657251152	921.912222389438	569.195793584454	602.005666774605	924.975256465343	471.826200268509	604.698211588269	921.008059937756	764.615994781767	420.544954702344	874.425484813632	640.661300279428	336.793126644689	977.318697478764	576.116506064789	396.927654518156	991.455683681354	490.101437926442	380.883348142200	932.491821373575	422.936502076916	365.375524995221	796.305202431863	362.350795346485	322.708218755846	814.092527936163	226.569790588668	357.770010543226	878.068716080815	385.012548105788	603.261227623568	787.679341427781	290.781373637387	655.967400758006	812.496033420835	195.374137952080	587.518814497942	655.738542794230	44.230709677725	544.536014250878	826.408009570634	96.166552436110	591.553810946463	734.777121929574	37.254833595060	624.131241688865	943.141760878572	41.357207412835	626.330831627527	647.049671429460	113.785913625915	403.544655991449	699.669706503089	101.360674920904	309.150114359934	802.261136138820	131.486358481901	321.092561410305	897.353485694108	51.473010637489	258.674576268046	737.195047233165	1074.538559248649	262.385357703703	896.687419641198	873.818247161269	222.892624179253	876.189160629006	1077.230902149335	837.366391194509	1086.698733414324	929.029732573214	816.461400611601	
5	18.484285714286	624.171931716020	978.861787395225	568.668563551563	777.609194763509	1417.980784172514	386.553157234660	892.942792802080	1352.124301439988	539.875578860814	819.576218120684	1421.367676141948	720.458137598646	772.414856898801	1477.844678816545	551.374683546687	864.393467602454	926.168931360334	673.833650345969	833.042073826592	950.889581334198	401.132968239528	914.633995165325	730.525841781683	631.929081075182	842.070869035132	610.249311873204	683.952286966584	922.010985737370	567.625528586644	600.830019123149	925.125637391668	469.718301702969	603.230290850462	919.402675428476	764.652058341244	420.534210935799	873.996042056177	640.285879832700	336.823294214720	977.661991840169	577.008258923394	396.734899064236	993.327877920997	491.784835964748	380.601023542366	936.580482788072	423.515420668985	364.699981540358	802.678597875587	358.283579721850	321.786304845481	825.449860665853	222.958110637452	356.303283103854	877.056156404027	383.102238198977	602.059233153424	785.734451448592	289.966654933825	655.105378581318	808.654391260397	194.267874365397	586.731376759919	649.952589107838	44.399693846580	544.475665659278	820.582402939152	95.940079354727	591.190727944725	728.991855567280	37.312365278711	624.076613202825	937.355582218491	40.984704686966	626.380493744478	662.656519511940	103.940828277505	401.670668185108	715.731964956155	93.728119300513	307.223253093329	817.150506839616	127.536356221420	319.276472694901	915.143928089024	51.275106391547	256.627086003181	726.780983475596	1069.781512427473	271.313239679339	868.592159501587	855.602610170951	235.545547950412	887.546654608722	1076.022745821258	833.696493280531	1105.051462477035	939.640503348269	805.444881417372	
